<?xml version="1.0" encoding="utf-8"?>
<?xml-stylesheet type="text/xsl" href="rss1.xsl"?>
<rss version="2.0" xmlns:atom="http://www.w3.org/2005/Atom" xmlns:content="http://purl.org/rss/1.0/modules/content/" xmlns:dc="http://purl.org/dc/elements/1.1/" xmlns:media="http://search.yahoo.com/mrss/">
<channel>
 <title>Getty</title>
 <link>http://www.gettyimg.com/</link>
 <atom:link href="http://www.gettyimg.com/" rel="self" type="application/rss+xml" />

 
                <item>
                <title><![CDATA[【Actresses】Crystal Mantecon, Ava Santana and other - Harold &amp; Kumar Escape from Guantanamo Bay (2008)1080p]]></title>
                <link><![CDATA[https://sharemania.us/threads/crystal-mantecon-ava-santana-and-other-harold-kumar-escape-from-guantanamo-bay-2008-1080p.242135/]]></link>
                <description><![CDATA[<article>
<blockquote class="messageText SelectQuoteContainer ugc baseHtml">
Crystal Mantecon, Ava Santana and other - Harold &amp; Kumar Escape from Guantanamo Bay (2008)1080p<br>
<br>
<a href="https://imgbox.com/mrfOnL7b" target="_blank" class="externalLink" rel="nofollow"><img src="https://thumbs2.imgbox.com/11/34/mrfOnL7b_t.jpg" class="bbCodeImage LbImage" alt="[​IMG]" data-url="https://thumbs2.imgbox.com/11/34/mrfOnL7b_t.jpg"></a> <a href="https://imgbox.com/Y78iDkFw" target="_blank" class="externalLink" rel="nofollow"><img src="https://thumbs2.imgbox.com/12/04/Y78iDkFw_t.jpg" class="bbCodeImage LbImage" alt="[​IMG]" data-url="https://thumbs2.imgbox.com/12/04/Y78iDkFw_t.jpg"></a> <a href="https://imgbox.com/RILKRG5N" target="_blank" class="externalLink" rel="nofollow"><img src="https://thumbs2.imgbox.com/88/f3/RILKRG5N_t.jpg" class="bbCodeImage LbImage" alt="[​IMG]" data-url="https://thumbs2.imgbox.com/88/f3/RILKRG5N_t.jpg"></a> <a href="https://imgbox.com/Dt8ZxPoQ" target="_blank" class="externalLink" rel="nofollow"><img src="https://thumbs2.imgbox.com/85/af/Dt8ZxPoQ_t.jpg" class="bbCodeImage LbImage" alt="[​IMG]" data-url="https://thumbs2.imgbox.com/85/af/Dt8ZxPoQ_t.jpg"></a> <a href="https://imgbox.com/betUlpMb" target="_blank" class="externalLink" rel="nofollow"><img src="https://thumbs2.imgbox.com/b0/58/betUlpMb_t.jpg" class="bbCodeImage LbImage" alt="[​IMG]" data-url="https://thumbs2.imgbox.com/b0/58/betUlpMb_t.jpg"></a> <a href="https://imgbox.com/e6XT0eRv" target="_blank" class="externalLink" rel="nofollow"><img src="https://thumbs2.imgbox.com/43/97/e6XT0eRv_t.jpg" class="bbCodeImage LbImage" alt="[​IMG]" data-url="https://thumbs2.imgbox.com/43/97/e6XT0eRv_t.jpg"></a><br>
Duration: 0:05:02 Resolution: 1920x1080 Format: mp4 Size: 165.86 MB<br>
<a href="https://filejoker.net/11pbgq02z0je" target="_blank" class="externalLink" rel="nofollow">https://filejoker.net/11pbgq02z0je</a>
<div class="messageTextEndMarker">&nbsp;</div>
</blockquote>
</article>]]></description>
                <author><![CDATA[piqeros]]></author>
                </item>

                
                <item>
                <title><![CDATA[【Cinema Center】MOVIE - Drive-Away.Dolls.2024.1080p.PCOK.WEB-DL.DDP5.1.x264-Samuel]]></title>
                <link><![CDATA[https://sharemania.us/threads/drive-away-dolls-2024-1080p-pcok-web-dl-ddp5-1-x264-samuel.242139/]]></link>
                <description><![CDATA[<article>
<blockquote class="messageText SelectQuoteContainer ugc baseHtml">
<div style="text-align: center"><b><span style="font-size: 26px">Drive-Away Dolls</span></b><br>
<img src="https://i.imgur.com/HxAtEb1.jpeg" class="bbCodeImage LbImage" alt="[​IMG]" data-url="https://i.imgur.com/HxAtEb1.jpeg" style=""><br>
<b><a href="https://i.imgur.com/eEHHFQJ.jpeg" target="_blank" class="externalLink" rel="nofollow">Alternate Artwork 1</a></b> | <b><a href="https://i.imgur.com/kG9qjrk.jpeg" target="_blank" class="externalLink" rel="nofollow">Alternate Artwork 2</a></b> | <b><a href="https://i.imgur.com/PjOfnSe.jpeg" target="_blank" class="externalLink" rel="nofollow">Alternate Artwork 3</a></b> | <b><a href="https://i.imgur.com/IBnwtAp.jpeg" target="_blank" class="externalLink" rel="nofollow">Hero Image</a></b> | <b><a href="https://i.imgur.com/OpyyAAY.jpeg" target="_blank" class="externalLink" rel="nofollow">Poster 1</a></b> | <b><a href="https://i.imgur.com/9bl4q89.jpeg" target="_blank" class="externalLink" rel="nofollow">Poster 2</a></b> | <b><a href="https://i.imgur.com/eyyCUnE.jpeg" target="_blank" class="externalLink" rel="nofollow">Poster 3</a></b> | <b><a href="https://i.imgur.com/UZNTVT8.jpeg" target="_blank" class="externalLink" rel="nofollow">Thumbnail 1</a></b> | <b><a href="https://i.imgur.com/Ux2tumd.jpeg" target="_blank" class="externalLink" rel="nofollow">Thumbnail 2</a></b> | <b><a href="https://i.imgur.com/lxiPxKn.jpeg" target="_blank" class="externalLink" rel="nofollow">Key Art</a></b><br>
<br>
<img src="https://i.imgur.com/oE6aqL9.png" class="bbCodeImage LbImage" alt="[​IMG]" data-url="https://i.imgur.com/oE6aqL9.png" style=""> 63% • <img src="https://i.imgur.com/Cod3jVW.png" class="bbCodeImage LbImage" alt="[​IMG]" data-url="https://i.imgur.com/Cod3jVW.png" style=""> 36% • Comedy • 1h 24m • 2024<br>
<br>
<img src="https://i.imgur.com/tAMArCY.png" class="bbCodeImage LbImage" alt="[​IMG]" data-url="https://i.imgur.com/tAMArCY.png" style=""> Margaret Qualley, Geraldine Viswanathan, Beanie Feldstein<br>
R • AD <img src="https://i.imgur.com/6V6WiQL.png" class="bbCodeImage LbImage" alt="[​IMG]" data-url="https://i.imgur.com/6V6WiQL.png" style=""><br>
<br>
<div class="bbCodeBlock bbCodeQuote">
<aside>
<blockquote class="quoteContainer"><div class="quote"><b><span style="font-size: 15px"><span style="font-family: 'Arial'">Description</span></span></b><br>
Two women embark on a road trip to Florida, but things go awry when a mix-up puts a group of inept criminals on their trail.</div><div class="quoteExpand">Click to expand...</div></blockquote>
</aside>
</div>
<div class="bbCodeBlock bbCodeQuote">
<aside>
<blockquote class="quoteContainer"><div class="quote"><b><span style="font-size: 15px"><span style="font-family: 'Arial'">More Information</span></span></b><br>
<b>Starring:</b> Margaret Qualley, Geraldine Viswanathan, Beanie Feldstein, Colman Domingo, Pedro Pascal, Bill Camp, Matt Damon<br>
<b>Director:</b> Ethan Coen<br>
<b>Written By:</b> Ethan Coen, Tricia Cooke<br>
<b>Producers:</b> Ethan Coen, Tricia Cooke, Robert Graf, Tim Bevan, Eric Fellner</div><div class="quoteExpand">Click to expand...</div></blockquote>
</aside>
</div>
<div class="bbCodeBlock bbCodeQuote">
<aside>
<blockquote class="quoteContainer"><div class="quote"><b><span style="font-size: 15px"><span style="font-family: 'Arial'">Source</span></span></b><br>
<img src="https://i.imgur.com/3SYP1bO.png" class="bbCodeImage LbImage" alt="[​IMG]" data-url="https://i.imgur.com/3SYP1bO.png" style=""></div><div class="quoteExpand">Click to expand...</div></blockquote>
</aside>
</div>
<div class="bbCodeBlock bbCodeQuote">
<aside>
<blockquote class="quoteContainer"><div class="quote"><b><span style="font-size: 15px"><span style="font-family: 'Arial'">Trailers</span></span></b><br>
<span data-s9e-mediaembed="googledrive" style="display:inline-block;width:100%;max-width:640px"><span style="display:block;overflow:hidden;position:relative;padding-bottom:75%"><iframe allowfullscreen="" loading="lazy" scrolling="no" src="//drive.google.com/file/d/1o4POwvUFt6McKuWjzWWR9Khuj0gaJ5im/preview" style="border:0;height:100%;left:0;position:absolute;width:100%"></iframe></span></span></div><div class="quoteExpand quoteCut">Click to expand...</div></blockquote>
</aside>
</div>
<div class="bbCodeBlock bbCodeQuote">
<aside>
<blockquote class="quoteContainer"><div class="quote"><b><span style="font-size: 15px">Release Name</span></b><br>
Drive-Away.Dolls.2024.1080p.PCOK.WEB-DL.DDP5.1.x264-Samuel</div><div class="quoteExpand">Click to expand...</div></blockquote>
</aside>
</div>
<div class="ToggleTriggerAnchor bbCodeSpoilerContainer">
<button type="button" class="button bbCodeSpoilerButton ToggleTrigger Tooltip JsOnly" data-target="> .SpoilerTarget"><span>Spoiler: <span class="SpoilerTitle">Media Information - Movie</span></span></button>
<div class="SpoilerTarget bbCodeSpoilerText"><b><span style="text-decoration: underline">Drive-Away Dolls</span></b><br>
General<br>
Complete name : Drive-Away.Dolls.2024.1080p.PCOK.WEB-DL.DDP5.1.x264-Samuel.mkv<br>
Format : Matroska<br>
Format version : Version 4<br>
File size : 4.81 GiB<br>
Duration : 1 h 24 min<br>
Overall bit rate : 8 185 kb/s<br>
Frame rate : 23.976 FPS<br>
Encoded date : 2024-04-13 08:28:10 UTC<br>
Writing application : mkvmerge v83.0 ('Circle Of Friends') 64-bit<br>
Writing library : libebml v1.4.5 + libmatroska v1.7.1<br>
<br>
Video<br>
ID : 1<br>
Format : AVC<br>
Format/Info : Advanced Video Codec<br>
Format profile : High@L4<br>
Format settings : CABAC / 3 Ref Frames<br>
Format settings, CABAC : Yes<br>
Format settings, Reference frames : 3 frames<br>
Codec ID : V_MPEG4/ISO/AVC<br>
Duration : 1 h 24 min<br>
Bit rate : 7 814 kb/s<br>
Width : 1 920 pixels<br>
Height : 1 080 pixels<br>
Display aspect ratio : 16:9<br>
Frame rate mode : Constant<br>
Frame rate : 23.976 (24000/1001) FPS<br>
Color space : YUV<br>
Chroma subsampling : 4:2:0<br>
Bit depth : 8 bits<br>
Scan type : Progressive<br>
Bits/(Pixel*Frame) : 0.157<br>
Stream size : 4.53 GiB (94%)<br>
Writing library : x264 core 164 r3095 baee400<br>
Encoding settings : cabac=1 / ref=3 / deblock=1:0:0 / analyse=0x3:0x113 / me=umh / subme=7 / psy=1 / psy_rd=0.00:0.00 / mixed_ref=1 / me_range=16 / chroma_me=1 / trellis=1 / 8x8dct=1 / cqm=0 / deadzone=21,11 / fast_pskip=1 / chroma_qp_offset=0 / threads=34 / lookahead_threads=5 / sliced_threads=0 / nr=0 / decimate=1 / interlaced=0 / bluray_compat=0 / stitchable=1 / constrained_intra=0 / bframes=2 / b_pyramid=0 / b_adapt=1 / b_bias=0 / direct=1 / weightb=1 / open_gop=0 / weightp=2 / keyint=48 / keyint_min=4 / scenecut=0 / intra_refresh=0 / rc_lookahead=48 / rc=2pass / mbtree=1 / bitrate=7814 / ratetol=1.0 / qcomp=0.60 / qpmin=10 / qpmax=51 / qpstep=4 / cplxblur=20.0 / qblur=0.5 / vbv_maxrate=11729 / vbv_bufsize=11729 / nal_hrd=none / filler=0 / ip_ratio=1.41 / aq=1:1.00<br>
Default : Yes<br>
Forced : No<br>
Color range : Limited<br>
Color primaries : BT.709<br>
Transfer characteristics : BT.709<br>
Matrix coefficients : BT.709<br>
<br>
Audio #1<br>
ID : 2<br>
Format : E-AC-3<br>
Format/Info : Enhanced AC-3<br>
Commercial name : Dolby Digital Plus<br>
Codec ID : A_EAC3<br>
Duration : 1 h 24 min<br>
Bit rate mode : Constant<br>
Bit rate : 192 kb/s<br>
Channel(s) : 6 channels<br>
Channel layout : L R C LFE Ls Rs<br>
Sampling rate : 48.0 kHz<br>
Frame rate : 31.250 FPS (1536 SPF)<br>
Compression mode : Lossy<br>
Stream size : 116 MiB (2%)<br>
Language : English<br>
Service kind : Complete Main<br>
Default : Yes<br>
Forced : No<br>
<br>
Audio #2<br>
ID : 3<br>
Format : AAC LC<br>
Format/Info : Advanced Audio Codec Low Complexity<br>
Codec ID : A_AAC-2<br>
Duration : 1 h 24 min<br>
Bit rate : 96.0 kb/s<br>
Channel(s) : 2 channels<br>
Channel layout : L R<br>
Sampling rate : 48.0 kHz<br>
Frame rate : 46.875 FPS (1024 SPF)<br>
Compression mode : Lossy<br>
Stream size : 57.9 MiB (1%)<br>
Title : Audio Description<br>
Language : English<br>
Default : No<br>
Forced : No<br>
<br>
Audio #3<br>
ID : 4<br>
Format : E-AC-3<br>
Format/Info : Enhanced AC-3<br>
Commercial name : Dolby Digital Plus<br>
Codec ID : A_EAC3<br>
Duration : 1 h 24 min<br>
Bit rate mode : Constant<br>
Bit rate : 192 kb/s<br>
Channel(s) : 6 channels<br>
Channel layout : L R C LFE Ls Rs<br>
Sampling rate : 48.0 kHz<br>
Frame rate : 31.250 FPS (1536 SPF)<br>
Compression mode : Lossy<br>
Stream size : 116 MiB (2%)<br>
Language : Spanish<br>
Service kind : Complete Main<br>
Default : No<br>
Forced : No<br>
<br>
Text #1<br>
ID : 5<br>
Format : UTF-8<br>
Codec ID : S_TEXT/UTF8<br>
Codec ID/Info : UTF-8 Plain Text<br>
Duration : 1 h 23 min<br>
Bit rate : 74 b/s<br>
Frame rate : 0.326 FPS<br>
Count of elements : 1633<br>
Stream size : 45.3 KiB (0%)<br>
Language : English<br>
Default : No<br>
Forced : No<br>
<br>
Text #2<br>
ID : 6<br>
Format : UTF-8<br>
Codec ID : S_TEXT/UTF8<br>
Codec ID/Info : UTF-8 Plain Text<br>
Duration : 1 h 22 min<br>
Bit rate : 65 b/s<br>
Frame rate : 0.289 FPS<br>
Count of elements : 1437<br>
Stream size : 39.5 KiB (0%)<br>
Language : Spanish<br>
Default : No<br>
Forced : No<br>
<br>
Menu<br>
01:17:51.208 : en:Credits</div>
</div><br>
<div class="ToggleTriggerAnchor bbCodeSpoilerContainer">
<button type="button" class="button bbCodeSpoilerButton ToggleTrigger Tooltip JsOnly" data-target="> .SpoilerTarget"><span>Spoiler: <span class="SpoilerTitle">Media Information - Extras</span></span></button>
<div class="SpoilerTarget bbCodeSpoilerText"><b><span style="text-decoration: underline">Stories From Set: "Drive-Away Dolls"</span></b><br>
General<br>
Complete name : Stories.From.Set.Drive-Away.Dolls.UNKNOWN.1080p.PCOK.WEB-DL.AAC2.0.x264-Samuel.mkv<br>
Format : Matroska<br>
Format version : Version 4<br>
File size : 118 MiB<br>
Duration : 2 min 5 s<br>
Overall bit rate : 7 926 kb/s<br>
Frame rate : 23.976 FPS<br>
Encoded date : 2024-04-14 07:00:39 UTC<br>
Writing application : mkvmerge v83.0 ('Circle Of Friends') 64-bit<br>
Writing library : libebml v1.4.5 + libmatroska v1.7.1<br>
<br>
Video<br>
ID : 1<br>
Format : AVC<br>
Format/Info : Advanced Video Codec<br>
Format profile : High@L4<br>
Format settings : CABAC / 3 Ref Frames<br>
Format settings, CABAC : Yes<br>
Format settings, Reference frames : 3 frames<br>
Codec ID : V_MPEG4/ISO/AVC<br>
Duration : 2 min 4 s<br>
Bit rate : 7 814 kb/s<br>
Width : 1 920 pixels<br>
Height : 1 080 pixels<br>
Display aspect ratio : 16:9<br>
Frame rate mode : Constant<br>
Frame rate : 23.976 (24000/1001) FPS<br>
Color space : YUV<br>
Chroma subsampling : 4:2:0<br>
Bit depth : 8 bits<br>
Scan type : Progressive<br>
Bits/(Pixel*Frame) : 0.157<br>
Stream size : 117 MiB (99%)<br>
Writing library : x264 core 164 r3095 baee400<br>
Encoding settings : cabac=1 / ref=3 / deblock=1:0:0 / analyse=0x3:0x113 / me=umh / subme=7 / psy=1 / psy_rd=0.00:0.00 / mixed_ref=1 / me_range=16 / chroma_me=1 / trellis=1 / 8x8dct=1 / cqm=0 / deadzone=21,11 / fast_pskip=1 / chroma_qp_offset=0 / threads=34 / lookahead_threads=5 / sliced_threads=0 / nr=0 / decimate=1 / interlaced=0 / bluray_compat=0 / constrained_intra=0 / bframes=2 / b_pyramid=0 / b_adapt=1 / b_bias=0 / direct=1 / weightb=1 / open_gop=0 / weightp=2 / keyint=48 / keyint_min=4 / scenecut=0 / intra_refresh=0 / rc_lookahead=48 / rc=2pass / mbtree=1 / bitrate=7814 / ratetol=1.0 / qcomp=0.60 / qpmin=10 / qpmax=51 / qpstep=4 / cplxblur=20.0 / qblur=0.5 / vbv_maxrate=11729 / vbv_bufsize=11729 / nal_hrd=none / filler=0 / ip_ratio=1.41 / aq=1:1.00<br>
Default : Yes<br>
Forced : No<br>
Color range : Limited<br>
Color primaries : BT.709<br>
Transfer characteristics : BT.709<br>
Matrix coefficients : BT.709<br>
<br>
Audio<br>
ID : 2<br>
Format : AAC LC<br>
Format/Info : Advanced Audio Codec Low Complexity<br>
Codec ID : A_AAC-2<br>
Duration : 2 min 5 s<br>
Bit rate : 96.0 kb/s<br>
Channel(s) : 2 channels<br>
Channel layout : L R<br>
Sampling rate : 48.0 kHz<br>
Frame rate : 46.875 FPS (1024 SPF)<br>
Compression mode : Lossy<br>
Stream size : 1.43 MiB (1%)<br>
Language : English<br>
Default : Yes<br>
Forced : No</div>
</div><br>
<b>Screenshots</b><br>
<img src="https://i.imgur.com/tL5IQ0X.png" class="bbCodeImage LbImage" alt="[​IMG]" data-url="https://i.imgur.com/tL5IQ0X.png" style=""><br>
<div class="ToggleTriggerAnchor bbCodeSpoilerContainer">
<button type="button" class="button bbCodeSpoilerButton ToggleTrigger Tooltip JsOnly" data-target="> .SpoilerTarget"><span>Spoiler: <span class="SpoilerTitle">View Extras Screenshots</span></span></button>
<div class="SpoilerTarget bbCodeSpoilerText"><img src="https://i.imgur.com/rivrygS.png" class="bbCodeImage LbImage" alt="[​IMG]" data-url="https://i.imgur.com/rivrygS.png" style=""></div>
</div><br>
<b>Download</b><br>
<div class="bbCodeBlock bbCodeVfcHH HiddenContent">
<div class="attribution type">Hidden Content:</div>
<blockquote>You must reply before you can see the hidden data contained here.</blockquote>
</div></div>
<div class="messageTextEndMarker">&nbsp;</div>
</blockquote>
</article>]]></description>
                <author><![CDATA[Samuel]]></author>
                </item>

                
                <item>
                <title><![CDATA[【Requests】[REQ AUD] - 24BIT of this brenda lee's album]]></title>
                <link><![CDATA[https://sharemania.us/threads/24bit-of-this-brenda-lees-album.242136/]]></link>
                <description><![CDATA[<article>
<blockquote class="messageText SelectQuoteContainer ugc baseHtml">
<a href="https://www.qobuz.com/us-en/album/explosive-hits-brenda-lee/pvj1k4a451cub" target="_blank" class="externalLink" rel="nofollow">https://www.qobuz.com/us-en/album/explosive-hits-brenda-lee/pvj1k4a451cub</a>
<div class="messageTextEndMarker">&nbsp;</div>
</blockquote>
</article>]]></description>
                <author><![CDATA[Samhorny666]]></author>
                </item>

                
                <item>
                <title><![CDATA[【Apple Music】WEB-RiP - twenty one pilots - Next Semester [Apple HD Music Video]]]></title>
                <link><![CDATA[https://sharemania.us/threads/twenty-one-pilots-next-semester-apple-hd-music-video.242137/]]></link>
                <description><![CDATA[<article>
<blockquote class="messageText SelectQuoteContainer ugc baseHtml">
<span style="font-size: 22px"><b>twenty one pilots - Next Semester [Apple HD Music Video]</b></span><br>
<br>
<img src="https://imgur.com/p8oTBic.jpg" class="bbCodeImage LbImage" alt="[​IMG]" data-url="https://imgur.com/p8oTBic.jpg" style=""><br>
<br>
<div class="bbCodeBlock bbCodeCode">
<div class="type">Code:</div>
<pre>General
Format                         : MPEG-4
Codec ID                       : M4V  (isom/iso4/M4V /mp42)
File size                      : 308 MiB
Duration                       : 4 min 8 s
Overall bit rate mode          : Variable
Overall bit rate               : 10.4 Mb/s
Movie name                     : Next Semester
Performer                      : twenty one pilots
Genre                          : Alternative
ContentType                    : Music Video
Recorded date                  : UTC 2024-03-27 07:00:00
Encoded date                   : UTC 2024-04-06 21:28:53
Tagged date                    : UTC 2024-04-06 21:28:53
Copyright                      : ℗ © 2024 Fueled By Ramen LLC
Cover                          : Yes
Rating                         : None
GenreID                        : 1620
AppleStoreCountry              : United Kingdom
AlbumTitleID                   : 349736311
AppleStoreCatalogID            : 1738929509

Video
ID                             : 2
Format                         : AVC
Format/Info                    : Advanced Video Codec
Format profile                 : High@L4
Format settings                : CABAC / 5 Ref Frames
Format settings, CABAC         : Yes
Format settings, Reference fra : 5 frames
Codec ID                       : avc1
Codec ID/Info                  : Advanced Video Coding
Duration                       : 4 min 8 s
Bit rate                       : 10.1 Mb/s
Maximum bit rate               : 20.5 Mb/s
Width                          : 1 920 pixels
Height                         : 802 pixels
Display aspect ratio           : 2.40:1
Frame rate mode                : Constant
Frame rate                     : 23.976 (24000/1001) FPS
Color space                    : YUV
Chroma subsampling             : 4:2:0
Bit depth                      : 8 bits
Scan type                      : Progressive
Bits/(Pixel*Frame)             : 0.274
Stream size                    : 300 MiB (97%)
Title                          : Core Media Video
Encoded date                   : UTC 2024-04-05 22:18:56
Tagged date                    : UTC 2024-04-06 21:29:01
Color range                    : Limited
Color primaries                : BT.709
Transfer characteristics       : BT.709
Matrix coefficients            : BT.709
Codec configuration box        : avcC

Audio
ID                             : 1
Format                         : AAC LC
Format/Info                    : Advanced Audio Codec Low Complexity
Codec ID                       : mp4a-40-2
Duration                       : 4 min 8 s
Duration_LastFrame             : -17 ms
Bit rate mode                  : Variable
Bit rate                       : 252 kb/s
Maximum bit rate               : 381 kb/s
Channel(s)                     : 2 channels
Channel layout                 : L R
Sampling rate                  : 48.0 kHz
Frame rate                     : 46.875 FPS (1024 SPF)
Compression mode               : Lossy
Stream size                    : 7.47 MiB (2%)
Title                          : Core Media Audio
Encoded date                   : UTC 2024-04-05 22:14:25
Tagged date                    : UTC 2024-04-06 21:29:01
</pre>
</div>
<div class="bbCodeBlock bbCodeVfcHH HiddenContent">
<div class="attribution type">Hidden Content:</div>
<blockquote>You must reply before you can see the hidden data contained here.</blockquote>
</div>
<div class="messageTextEndMarker">&nbsp;</div>
</blockquote>
</article>]]></description>
                <author><![CDATA[abby0511]]></author>
                </item>

                
                <item>
                <title><![CDATA[【Requests】[REQ AUD] - Ai Tomioka Songs [Lossless]]]></title>
                <link><![CDATA[https://sharemania.us/threads/ai-tomioka-songs-lossless.242138/]]></link>
                <description><![CDATA[<article>
<blockquote class="messageText SelectQuoteContainer ugc baseHtml">
Hi, I'm looking this songs in flac.<br>
<br>
Ai Tomioka - Good Bye-bye<br>
<a href="https://www.deezer.com/search/Tomioka%20Ai%20Good%20bye%20bye/track" target="_blank" class="externalLink" rel="nofollow">https://www.deezer.com/search/Tomioka Ai Good bye bye/track</a><br>
<a href="https://listen.tidal.com/search?q=Tomioka+Ai+Good+bye+bye" target="_blank" class="externalLink" rel="nofollow">https://listen.tidal.com/search?q=Tomioka+Ai+Good+bye+bye</a><br>
<br>
Ai Tomioka - Koi suru wakusei “Anata”<br>
<br>
Can anyone share it please. Thanks in advance!
<div class="messageTextEndMarker">&nbsp;</div>
</blockquote>
</article>]]></description>
                <author><![CDATA[bigcaveguard]]></author>
                </item>

                </channel></rss>